<?xml version="1.0" encoding="UTF-8"?>
<svg version="1.1" xmlns="http://www.w3.org/2000/svg" width="1024" height="1024">
<path d="M0 0 C337.92 0 675.84 0 1024 0 C1024 337.92 1024 675.84 1024 1024 C686.08 1024 348.16 1024 0 1024 C0 686.08 0 348.16 0 0 Z " fill="#FDFDFD" transform="translate(0,0)"/>
<path d="M0 0 C0.9658905 0.00498505 1.93178101 0.00997009 2.92694092 0.0151062 C63.14920836 0.37913549 116.07002582 23.63943763 158.43945312 66.2644043 C164.59716855 72.5864742 170.11441264 79.20317756 175.25 86.375 C175.960354 87.35944092 175.960354 87.35944092 176.68505859 88.36376953 C197.42001162 117.41455159 209.60152247 149.28437045 215.25 184.375 C215.42869629 185.46143799 215.60739258 186.54787598 215.79150391 187.66723633 C216.28938519 191.69349997 216.41128099 195.653645 216.41796875 199.703125 C216.42220352 200.4855809 216.42643829 201.2680368 216.43080139 202.07420349 C216.44063818 204.59119101 216.44073195 207.10799676 216.4375 209.625 C216.43689575 210.48292145 216.4362915 211.3408429 216.43566895 212.22476196 C216.41235993 224.36406758 216.333205 236.38241902 214.25 248.375 C214.12109375 249.13119629 213.9921875 249.88739258 213.859375 250.66650391 C208.8656845 278.88894684 198.40328347 308.77365519 180.60693359 331.54052734 C179.25973395 333.36184043 178.15331297 335.20396858 177.0625 337.1875 C175.60612541 339.74871049 174.55745944 341.59196316 172.25 343.375 C171.59 343.375 170.93 343.375 170.25 343.375 C170.17007812 343.93703125 170.09015625 344.4990625 170.0078125 345.078125 C168.9989877 348.13580017 167.32494327 349.78336546 165.125 352.125 C163.90103516 353.44371094 163.90103516 353.44371094 162.65234375 354.7890625 C161.85957031 355.64242188 161.06679688 356.49578125 160.25 357.375 C159.056803 358.74505919 157.86873747 360.11961626 156.6875 361.5 C153.08202642 365.62776181 149.40085524 369.78713432 145.25 373.375 C144.59 373.375 143.93 373.375 143.25 373.375 C143.25 374.035 143.25 374.695 143.25 375.375 C141.87646484 376.64013672 141.87646484 376.64013672 139.9609375 378.0546875 C139.26613281 378.57160156 138.57132813 379.08851563 137.85546875 379.62109375 C137.11941406 380.15863281 136.38335938 380.69617188 135.625 381.25 C134.91214844 381.77980469 134.19929688 382.30960938 133.46484375 382.85546875 C131.404809 384.3787605 129.33176636 385.8815812 127.25 387.375 C126.67024414 387.79555664 126.09048828 388.21611328 125.49316406 388.64941406 C122.82489423 390.52231837 121.59156767 391.375 118.25 391.375 C118.25 392.035 118.25 392.695 118.25 393.375 C115.62785672 394.88019387 113.00255792 396.37931319 110.375 397.875 C109.62863281 398.30425781 108.88226562 398.73351562 108.11328125 399.17578125 C107.39785156 399.58183594 106.68242188 399.98789062 105.9453125 400.40625 C105.28547363 400.78330078 104.62563477 401.16035156 103.94580078 401.54882812 C102.25 402.375 102.25 402.375 100.25 402.375 C100.25 403.035 100.25 403.695 100.25 404.375 C81.36144971 412.92427312 62.64356192 420.32454659 42.25 424.375 C41.11014648 424.62056641 41.11014648 424.62056641 39.94726562 424.87109375 C-12.96556266 436.01548404 -70.96233047 422.37248696 -115.97558594 393.53125 C-128.88198675 384.96815153 -140.56943404 375.06207891 -151.75 364.375 C-152.76513672 363.42173828 -152.76513672 363.42173828 -153.80078125 362.44921875 C-158.93576082 357.50311199 -163.324427 351.95223603 -167.75 346.375 C-168.56855469 345.36179687 -169.38710938 344.34859375 -170.23046875 343.3046875 C-190.41070861 318.02157868 -205.3963774 285.26104155 -210.75 253.375 C-210.88390137 252.66553223 -211.01780273 251.95606445 -211.15576172 251.22509766 C-220.74664214 199.73210298 -209.70211049 144.54460855 -181.75 100.375 C-179.03448805 96.44815674 -176.09181064 92.75923356 -173 89.125 C-170.78969851 86.64183323 -170.78969851 86.64183323 -169.8515625 84.515625 C-164.27986745 73.68835944 -152.99797398 63.67722071 -143.75 55.9375 C-140.78673901 53.60564296 -140.78673901 53.60564296 -139.11328125 51.13671875 C-135.84016033 47.31176587 -131.99923952 44.57076653 -127.9375 41.625 C-126.67631348 40.70400513 -126.67631348 40.70400513 -125.38964844 39.7644043 C-115.98784234 32.98162194 -106.45947785 26.86315074 -95.75 22.375 C-94.5125 21.6325 -94.5125 21.6325 -93.25 20.875 C-90.86435539 19.44361323 -88.46473482 18.32003787 -85.89453125 17.26171875 C-84.23744334 16.57654761 -82.59092409 15.86578255 -80.94921875 15.14453125 C-75.59671821 12.82534105 -70.53859502 10.92491919 -64.80859375 9.83203125 C-62.11281771 9.23353828 -59.6367519 8.16157084 -57.0703125 7.16015625 C-51.7649242 5.36489859 -46.24059087 4.42506368 -40.75 3.375 C-39.73425903 3.17894417 -39.73425903 3.17894417 -38.69799805 2.97892761 C-25.74524844 0.5407374 -13.16136973 -0.11466291 0 0 Z " fill="#FDFDFC" transform="translate(510.75,280.625)"/>
<path d="M0 0 C1.78724487 0.01353516 1.78724487 0.01353516 3.6105957 0.02734375 C23.48534404 0.41760267 41.2734971 7.7204202 55.75 21.4375 C56.45382812 22.10007812 57.15765625 22.76265625 57.8828125 23.4453125 C74.42465809 40.50611795 80.13134897 63.92643384 80.05273438 86.98999023 C79.5920162 111.9903503 71.08579318 134.67937861 53.48046875 152.76953125 C36.12468252 169.22808782 16.05196748 175.82621992 -7.34765625 175.60546875 C-11.25 175.4375 -11.25 175.4375 -12.25 174.4375 C-13.87552303 174.44349824 -15.50093149 174.49348859 -17.125 174.5625 C-33.17402466 174.62446535 -47.83261078 166.22797767 -59.25 155.4375 C-61.35393417 153.16846838 -63.29723566 150.84090227 -65.25 148.4375 C-65.91 148.1075 -66.57 147.7775 -67.25 147.4375 C-67.31586304 148.8752478 -67.31586304 148.8752478 -67.38305664 150.34204102 C-67.90055449 160.46849099 -69.11554907 170.36367321 -70.6875 180.375 C-71.12768521 183.2168461 -71.56346117 186.05933837 -71.99609375 188.90234375 C-72.1024263 189.59866409 -72.20875885 190.29498444 -72.3183136 191.0124054 C-73.20336872 196.9070621 -73.92506123 202.81553899 -74.5868988 208.73912048 C-75.25326766 214.68417952 -76.21560283 220.5477692 -77.25 226.4375 C-77.79678941 229.68665044 -78.33545707 232.93713968 -78.875 236.1875 C-79.32875 238.91 -79.7825 241.6325 -80.25 244.4375 C-91.14 244.4375 -102.03 244.4375 -113.25 244.4375 C-111.3091214 230.05250592 -109.28893516 215.68460184 -107.1484375 201.328125 C-106.8636384 199.41380088 -106.57885895 197.49947383 -106.2940979 195.58514404 C-105.7052162 191.62903936 -105.11516453 187.67311118 -104.52441406 183.71728516 C-103.76683087 178.64270486 -103.01375679 173.56746567 -102.26166344 168.49206924 C-101.67891354 164.56451147 -101.0931078 160.63741404 -100.50642776 156.71044159 C-100.22700899 154.83665341 -99.94871931 152.9626965 -99.67158127 151.08856964 C-99.28736838 148.49247257 -98.89887893 145.89705085 -98.50927734 143.30175781 C-98.39602615 142.5299971 -98.28277496 141.75823639 -98.16609192 140.96308899 C-97.36415109 135.66580219 -97.36415109 135.66580219 -96.25 133.4375 C-96.05539388 132.01528196 -95.90698155 130.58654168 -95.78515625 129.15625 C-95.70716797 128.31449219 -95.62917969 127.47273437 -95.54882812 126.60546875 C-95.39130608 124.82716201 -95.23765806 123.04850785 -95.08789062 121.26953125 C-95.00861328 120.42777344 -94.92933594 119.58601562 -94.84765625 118.71875 C-94.78070557 117.94595703 -94.71375488 117.17316406 -94.64477539 116.37695312 C-94.25 114.4375 -94.25 114.4375 -92.25 112.4375 C-92.2049714 110.77144172 -92.21125079 109.10371616 -92.25 107.4375 C-91.27083255 101.07291155 -88.82585924 95.29172555 -86.25 89.4375 C-86.91 89.4375 -87.57 89.4375 -88.25 89.4375 C-88.37375 90.38625 -88.4975 91.335 -88.625 92.3125 C-89.25 95.4375 -89.25 95.4375 -91.25 97.4375 C-90.90757826 92.21556854 -90.21629255 88.08182395 -88.1875 83.25 C-86.06195931 77.76155028 -86.11676836 73.17652237 -86.30078125 67.3515625 C-86.24284216 62.88579551 -85.6344275 58.70360063 -84.875 54.3125 C-83.72395392 47.65350021 -82.85175846 41.04373757 -82.25 34.3125 C-81.26868212 23.5390391 -79.37041964 13.03959819 -77.25 2.4375 C-67.02 2.4375 -56.79 2.4375 -46.25 2.4375 C-46.25 7.0575 -46.25 11.6775 -46.25 16.4375 C-44.14625 14.890625 -44.14625 14.890625 -42 13.3125 C-28.75551148 4.08432323 -16.11975127 -0.14624198 0 0 Z " fill="#82B949" transform="translate(588.25,399.5625)"/>
<path d="M0 0 C0.9658905 0.00498505 1.93178101 0.00997009 2.92694092 0.0151062 C63.14920836 0.37913549 116.07002582 23.63943763 158.43945312 66.2644043 C164.59716855 72.5864742 170.11441264 79.20317756 175.25 86.375 C175.960354 87.35944092 175.960354 87.35944092 176.68505859 88.36376953 C197.42001162 117.41455159 209.60152247 149.28437045 215.25 184.375 C215.42869629 185.46143799 215.60739258 186.54787598 215.79150391 187.66723633 C216.28938519 191.69349997 216.41128099 195.653645 216.41796875 199.703125 C216.42220352 200.4855809 216.42643829 201.2680368 216.43080139 202.07420349 C216.44063818 204.59119101 216.44073195 207.10799676 216.4375 209.625 C216.43689575 210.48292145 216.4362915 211.3408429 216.43566895 212.22476196 C216.41235993 224.36406758 216.333205 236.38241902 214.25 248.375 C214.12109375 249.13119629 213.9921875 249.88739258 213.859375 250.66650391 C208.8656845 278.88894684 198.40328347 308.77365519 180.60693359 331.54052734 C179.25973395 333.36184043 178.15331297 335.20396858 177.0625 337.1875 C175.60612541 339.74871049 174.55745944 341.59196316 172.25 343.375 C171.59 343.375 170.93 343.375 170.25 343.375 C170.17007812 343.93703125 170.09015625 344.4990625 170.0078125 345.078125 C168.9989877 348.13580017 167.32494327 349.78336546 165.125 352.125 C163.90103516 353.44371094 163.90103516 353.44371094 162.65234375 354.7890625 C161.85957031 355.64242188 161.06679688 356.49578125 160.25 357.375 C159.056803 358.74505919 157.86873747 360.11961626 156.6875 361.5 C153.08202642 365.62776181 149.40085524 369.78713432 145.25 373.375 C144.59 373.375 143.93 373.375 143.25 373.375 C143.25 374.035 143.25 374.695 143.25 375.375 C141.87646484 376.64013672 141.87646484 376.64013672 139.9609375 378.0546875 C139.26613281 378.57160156 138.57132813 379.08851563 137.85546875 379.62109375 C137.11941406 380.15863281 136.38335938 380.69617188 135.625 381.25 C134.91214844 381.77980469 134.19929688 382.30960938 133.46484375 382.85546875 C131.404809 384.3787605 129.33176636 385.8815812 127.25 387.375 C126.67024414 387.79555664 126.09048828 388.21611328 125.49316406 388.64941406 C122.82489423 390.52231837 121.59156767 391.375 118.25 391.375 C118.25 392.035 118.25 392.695 118.25 393.375 C115.62785672 394.88019387 113.00255792 396.37931319 110.375 397.875 C109.62863281 398.30425781 108.88226562 398.73351562 108.11328125 399.17578125 C107.39785156 399.58183594 106.68242188 399.98789062 105.9453125 400.40625 C105.28547363 400.78330078 104.62563477 401.16035156 103.94580078 401.54882812 C102.25 402.375 102.25 402.375 100.25 402.375 C100.25 403.035 100.25 403.695 100.25 404.375 C81.36144971 412.92427312 62.64356192 420.32454659 42.25 424.375 C41.11014648 424.62056641 41.11014648 424.62056641 39.94726562 424.87109375 C-12.96556266 436.01548404 -70.96233047 422.37248696 -115.97558594 393.53125 C-128.88198675 384.96815153 -140.56943404 375.06207891 -151.75 364.375 C-152.76513672 363.42173828 -152.76513672 363.42173828 -153.80078125 362.44921875 C-158.93576082 357.50311199 -163.324427 351.95223603 -167.75 346.375 C-168.56855469 345.36179687 -169.38710938 344.34859375 -170.23046875 343.3046875 C-190.41070861 318.02157868 -205.3963774 285.26104155 -210.75 253.375 C-210.88390137 252.66553223 -211.01780273 251.95606445 -211.15576172 251.22509766 C-220.74664214 199.73210298 -209.70211049 144.54460855 -181.75 100.375 C-179.03448805 96.44815674 -176.09181064 92.75923356 -173 89.125 C-170.78969851 86.64183323 -170.78969851 86.64183323 -169.8515625 84.515625 C-164.27986745 73.68835944 -152.99797398 63.67722071 -143.75 55.9375 C-140.78673901 53.60564296 -140.78673901 53.60564296 -139.11328125 51.13671875 C-135.84016033 47.31176587 -131.99923952 44.57076653 -127.9375 41.625 C-126.67631348 40.70400513 -126.67631348 40.70400513 -125.38964844 39.7644043 C-115.98784234 32.98162194 -106.45947785 26.86315074 -95.75 22.375 C-94.5125 21.6325 -94.5125 21.6325 -93.25 20.875 C-90.86435539 19.44361323 -88.46473482 18.32003787 -85.89453125 17.26171875 C-84.23744334 16.57654761 -82.59092409 15.86578255 -80.94921875 15.14453125 C-75.59671821 12.82534105 -70.53859502 10.92491919 -64.80859375 9.83203125 C-62.11281771 9.23353828 -59.6367519 8.16157084 -57.0703125 7.16015625 C-51.7649242 5.36489859 -46.24059087 4.42506368 -40.75 3.375 C-39.73425903 3.17894417 -39.73425903 3.17894417 -38.69799805 2.97892761 C-25.74524844 0.5407374 -13.16136973 -0.11466291 0 0 Z M-78.75 31.375 C-80.11801253 31.94568991 -81.48798248 32.5116996 -82.859375 33.07421875 C-111.58666247 45.04314486 -138.12448871 66.46386067 -156.75 91.375 C-157.57570909 92.44617202 -158.40259893 93.51643456 -159.23046875 94.5859375 C-163.71741264 99.51746455 -163.71741264 99.51746455 -165.75 105.375 C-166.41 105.375 -167.07 105.375 -167.75 105.375 C-168.42154933 106.66413487 -169.08708859 107.95640204 -169.75 109.25 C-170.306875 110.32894531 -170.306875 110.32894531 -170.875 111.4296875 C-171.88673746 113.32348977 -171.88673746 113.32348977 -171.75 115.375 C-172.41 115.375 -173.07 115.375 -173.75 115.375 C-174.68873691 117.39525905 -175.62592803 119.4162364 -176.5625 121.4375 C-177.08457031 122.56285156 -177.60664063 123.68820312 -178.14453125 124.84765625 C-186.16959895 142.47937433 -192.41678858 161.26965979 -195.75 180.375 C-195.97300781 181.57382812 -196.19601562 182.77265625 -196.42578125 184.0078125 C-204.04078441 232.80599605 -191.22850277 286.69414999 -162.625 326.875 C-161.02419315 329.06172309 -159.39236283 331.218719 -157.75 333.375 C-156.76773438 334.67630859 -156.76773438 334.67630859 -155.765625 336.00390625 C-124.33892647 376.45604093 -77.32589514 403.24372169 -26.61010742 410.44628906 C-16.9466166 411.62532552 -7.28281608 411.64093396 2.4375 411.625 C3.63764236 411.62383682 3.63764236 411.62383682 4.86203003 411.62265015 C18.2304843 411.58510842 30.88694474 410.65027319 44 407.9375 C45.08410156 407.72029297 46.16820312 407.50308594 47.28515625 407.27929688 C56.5073342 405.59810814 56.5073342 405.59810814 65.25 402.375 C68.13064973 400.93467513 71.14960409 400.23904476 74.25 399.375 C81.51440148 397.32888314 87.70627539 394.09629394 94.25 390.375 C96.20653971 389.30920074 98.16483684 388.24662042 100.125 387.1875 C111.10213664 381.24018567 120.7661384 373.95677019 129.9453125 365.49609375 C132.05356577 363.55578608 134.20069632 361.6780018 136.375 359.8125 C139.87760327 356.76890724 143.12694568 353.52243039 146.375 350.2109375 C147.98188898 348.63752538 149.60162892 347.25120985 151.375 345.875 C156.50865566 341.4109516 159.8455405 336.11055387 163.16552734 330.21777344 C164.58269368 327.8096754 166.15713199 325.53348474 167.75097656 323.23999023 C182.13512067 302.48194958 191.98709771 278.00311909 197.25 253.375 C197.40243164 252.69953125 197.55486328 252.0240625 197.71191406 251.328125 C200.38281762 239.05235226 200.53998406 226.75577727 200.5625 214.25 C200.56787781 213.05295441 200.56787781 213.05295441 200.57336426 211.83172607 C200.60928907 196.94700671 199.9219247 181.88560272 196.0625 167.4375 C195.84964355 166.61668945 195.63678711 165.79587891 195.41748047 164.95019531 C192.97441375 155.86205659 189.74304586 147.10472466 186.25 138.375 C185.85240479 137.355271 185.85240479 137.355271 185.44677734 136.31494141 C178.73885934 119.23603544 169.00476062 103.43741713 157.25 89.375 C156.75967285 88.78460938 156.2693457 88.19421875 155.76416016 87.5859375 C146.98850439 77.06285576 138.01076777 67.9137391 127.25 59.375 C126.23679687 58.55644531 125.22359375 57.73789062 124.1796875 56.89453125 C92.90693821 31.93353511 52.2228142 16.8363717 12.25 15.375 C11.49428711 15.34245117 10.73857422 15.30990234 9.95996094 15.27636719 C-20.07756605 14.12865774 -51.33548781 18.65730517 -78.75 31.375 Z " fill="#F8F8F8" transform="translate(510.75,280.625)"/>
<path d="M0 0 C0.79857422 -0.00322266 1.59714844 -0.00644531 2.41992188 -0.00976562 C15.79359637 0.11012877 27.55439324 5.53110573 37.1796875 14.76953125 C48.66935667 27.71031781 50.37466629 42.3895869 49.6015625 58.98876953 C48.78419578 70.56569875 44.42888385 83.02231874 37.4375 92.3125 C37.1384375 93.1271875 36.839375 93.941875 36.53125 94.78125 C32.95662484 103.05395395 23.32246032 107.91590171 15.4375 111.3125 C14.4475 111.8075 14.4475 111.8075 13.4375 112.3125 C11.10502239 112.65176947 8.77164529 112.98490066 6.4375 113.3125 C5.4475 113.6425 4.4575 113.9725 3.4375 114.3125 C-6.83996405 114.94961921 -16.19952838 115.12091605 -25.5625 110.3125 C-26.42230469 109.87679687 -27.28210938 109.44109375 -28.16796875 108.9921875 C-41.29051231 101.72614976 -49.38690726 90.31558468 -53.8359375 76.13671875 C-58.03232587 59.82495106 -54.15279506 43.09360091 -46.5625 28.3125 C-44.44509588 24.78349313 -42.13459301 21.5234135 -39.5625 18.3125 C-39.06363281 17.68730469 -38.56476562 17.06210937 -38.05078125 16.41796875 C-28.60740776 5.88040085 -13.9701649 -0.28325557 0 0 Z " fill="#FDFDFC" transform="translate(585.5625,430.6875)"/>
<path d="M0 0 C10.89 0 21.78 0 33 0 C32.38113987 8.66404181 31.7325677 16.65007719 30.0625 25.0625 C27.41756166 38.74980449 25.47601288 52.52907133 23.51416016 66.32736206 C23.11605217 69.12538813 22.71639883 71.92319003 22.31640625 74.72094727 C21.17273079 82.72603008 20.03217991 90.731318 18.9296875 98.7421875 C16.54911102 115.95898827 13.74443854 133.08848664 10.67871094 150.1953125 C10.26783059 152.49860723 9.86305318 154.80301782 9.46972656 157.109375 C5.59799529 179.76677914 -4.13604195 200.3847722 -23.1875 214.25 C-35.9343181 222.2865228 -50.16774931 224.33773536 -64.875 224.1875 C-66.09703125 224.18685547 -67.3190625 224.18621094 -68.578125 224.18554688 C-77.57745536 224.14084821 -77.57745536 224.14084821 -81 223 C-79.88156738 213.62420318 -78.65562772 204.29969612 -77 195 C-76.43192627 195.02618408 -75.86385254 195.05236816 -75.27856445 195.0793457 C-61.53659623 195.62802431 -49.86423241 195.7438316 -38.5625 186.8125 C-27.45197711 175.98266401 -24.4855713 160.96270855 -22.19140625 146.23046875 C-21.93894873 144.66014494 -21.6857998 143.08993216 -21.43202209 141.51982117 C-20.60194943 136.34952091 -19.79832416 131.17528587 -19 126 C-18.86080894 125.09904854 -18.72161789 124.19809708 -18.57820892 123.26984406 C-16.47439358 109.63280146 -14.42576696 95.98761261 -12.3895874 82.34033203 C-11.63606388 77.29364716 -10.87948174 72.24742105 -10.12304688 67.20117188 C-9.23955355 61.30633801 -8.35625294 55.41147595 -7.47445679 49.51638794 C-5.00470282 33.00759085 -2.5065245 16.50326054 0 0 Z " fill="#1E5821" transform="translate(469,397)"/>
<path d="M0 0 C0.9658905 0.00498505 1.93178101 0.00997009 2.92694092 0.0151062 C63.14920836 0.37913549 116.07002582 23.63943763 158.43945312 66.2644043 C164.59716855 72.5864742 170.11441264 79.20317756 175.25 86.375 C175.960354 87.35944092 175.960354 87.35944092 176.68505859 88.36376953 C197.42001162 117.41455159 209.60152247 149.28437045 215.25 184.375 C215.42869629 185.46143799 215.60739258 186.54787598 215.79150391 187.66723633 C216.28938519 191.69349997 216.41128099 195.653645 216.41796875 199.703125 C216.42220352 200.4855809 216.42643829 201.2680368 216.43080139 202.07420349 C216.44063818 204.59119101 216.44073195 207.10799676 216.4375 209.625 C216.43689575 210.48292145 216.4362915 211.3408429 216.43566895 212.22476196 C216.41235993 224.36406758 216.333205 236.38241902 214.25 248.375 C214.12109375 249.13119629 213.9921875 249.88739258 213.859375 250.66650391 C208.8656845 278.88894684 198.40328347 308.77365519 180.60693359 331.54052734 C179.25973395 333.36184043 178.15331297 335.20396858 177.0625 337.1875 C175.60612541 339.74871049 174.55745944 341.59196316 172.25 343.375 C171.59 343.375 170.93 343.375 170.25 343.375 C170.17007812 343.93703125 170.09015625 344.4990625 170.0078125 345.078125 C168.9989877 348.13580017 167.32494327 349.78336546 165.125 352.125 C163.90103516 353.44371094 163.90103516 353.44371094 162.65234375 354.7890625 C161.85957031 355.64242188 161.06679688 356.49578125 160.25 357.375 C159.056803 358.74505919 157.86873747 360.11961626 156.6875 361.5 C153.08202642 365.62776181 149.40085524 369.78713432 145.25 373.375 C144.59 373.375 143.93 373.375 143.25 373.375 C143.25 374.035 143.25 374.695 143.25 375.375 C141.87646484 376.64013672 141.87646484 376.64013672 139.9609375 378.0546875 C139.26613281 378.57160156 138.57132813 379.08851563 137.85546875 379.62109375 C137.11941406 380.15863281 136.38335938 380.69617188 135.625 381.25 C134.91214844 381.77980469 134.19929688 382.30960938 133.46484375 382.85546875 C131.404809 384.3787605 129.33176636 385.8815812 127.25 387.375 C126.67024414 387.79555664 126.09048828 388.21611328 125.49316406 388.64941406 C122.82489423 390.52231837 121.59156767 391.375 118.25 391.375 C118.25 392.035 118.25 392.695 118.25 393.375 C115.62785672 394.88019387 113.00255792 396.37931319 110.375 397.875 C109.62863281 398.30425781 108.88226562 398.73351562 108.11328125 399.17578125 C107.39785156 399.58183594 106.68242188 399.98789062 105.9453125 400.40625 C105.28547363 400.78330078 104.62563477 401.16035156 103.94580078 401.54882812 C102.25 402.375 102.25 402.375 100.25 402.375 C100.25 403.035 100.25 403.695 100.25 404.375 C81.36144971 412.92427312 62.64356192 420.32454659 42.25 424.375 C41.11014648 424.62056641 41.11014648 424.62056641 39.94726562 424.87109375 C-12.96556266 436.01548404 -70.96233047 422.37248696 -115.97558594 393.53125 C-128.88198675 384.96815153 -140.56943404 375.06207891 -151.75 364.375 C-152.76513672 363.42173828 -152.76513672 363.42173828 -153.80078125 362.44921875 C-158.93576082 357.50311199 -163.324427 351.95223603 -167.75 346.375 C-168.56855469 345.36179687 -169.38710938 344.34859375 -170.23046875 343.3046875 C-190.41070861 318.02157868 -205.3963774 285.26104155 -210.75 253.375 C-210.88390137 252.66553223 -211.01780273 251.95606445 -211.15576172 251.22509766 C-220.74664214 199.73210298 -209.70211049 144.54460855 -181.75 100.375 C-179.03448805 96.44815674 -176.09181064 92.75923356 -173 89.125 C-170.78969851 86.64183323 -170.78969851 86.64183323 -169.8515625 84.515625 C-164.27986745 73.68835944 -152.99797398 63.67722071 -143.75 55.9375 C-140.78673901 53.60564296 -140.78673901 53.60564296 -139.11328125 51.13671875 C-135.84016033 47.31176587 -131.99923952 44.57076653 -127.9375 41.625 C-126.67631348 40.70400513 -126.67631348 40.70400513 -125.38964844 39.7644043 C-115.98784234 32.98162194 -106.45947785 26.86315074 -95.75 22.375 C-94.5125 21.6325 -94.5125 21.6325 -93.25 20.875 C-90.86435539 19.44361323 -88.46473482 18.32003787 -85.89453125 17.26171875 C-84.23744334 16.57654761 -82.59092409 15.86578255 -80.94921875 15.14453125 C-75.59671821 12.82534105 -70.53859502 10.92491919 -64.80859375 9.83203125 C-62.11281771 9.23353828 -59.6367519 8.16157084 -57.0703125 7.16015625 C-51.7649242 5.36489859 -46.24059087 4.42506368 -40.75 3.375 C-39.73425903 3.17894417 -39.73425903 3.17894417 -38.69799805 2.97892761 C-25.74524844 0.5407374 -13.16136973 -0.11466291 0 0 Z M-70.3359375 16.36328125 C-73.07256987 17.51018705 -75.83809837 18.54406761 -78.625 19.5625 C-79.50929688 19.88605469 -80.39359375 20.20960938 -81.3046875 20.54296875 C-83.44270791 21.27044215 -85.56130345 21.83019458 -87.75 22.375 C-88.41 22.705 -89.07 23.035 -89.75 23.375 C-89.75 24.035 -89.75 24.695 -89.75 25.375 C-90.5853125 25.6225 -91.420625 25.87 -92.28125 26.125 C-96.19306445 27.53466287 -99.64290514 29.32698986 -103.25 31.375 C-103.94343506 31.76727783 -104.63687012 32.15955566 -105.35131836 32.5637207 C-114.01184734 37.55892848 -122.32038253 43.23866319 -129.8125 49.875 C-132.51449877 52.17457342 -134.50654038 53.13485368 -137.75 54.375 C-138.08 55.365 -138.41 56.355 -138.75 57.375 C-139.41 57.375 -140.07 57.375 -140.75 57.375 C-142.28457367 58.89219983 -142.28457367 58.89219983 -143.875 60.875 C-146.36558638 63.81420132 -148.9175508 66.57292878 -151.6875 69.25 C-155.49833662 72.98669583 -158.75313134 77.03427555 -161.98828125 81.2734375 C-163.75 83.375 -163.75 83.375 -166.75 85.375 C-166.75 86.365 -166.75 87.355 -166.75 88.375 C-167.74 88.705 -168.73 89.035 -169.75 89.375 C-171.23537267 91.5415257 -171.23537267 91.5415257 -172.75 94.375 C-173.55822037 95.64855936 -174.37108165 96.91918037 -175.1875 98.1875 C-179.74068635 104.88253096 -179.74068635 104.88253096 -181.75 112.375 C-182.41 112.375 -183.07 112.375 -183.75 112.375 C-193.84291183 133.28352599 -201.79057263 154.44748557 -205.75 177.375 C-205.89808105 178.16841797 -206.04616211 178.96183594 -206.19873047 179.77929688 C-215.93630371 232.48168467 -202.06255195 287.85198144 -172.37890625 331.93359375 C-140.1617699 378.70333857 -91.8630098 407.95066312 -36.75 419.375 C-35.86554199 419.5601416 -34.98108398 419.7452832 -34.06982422 419.93603516 C8.43133362 428.43626672 53.33774483 420.34573038 92.25 402.375 C93.03181641 402.01841309 93.81363281 401.66182617 94.61914062 401.29443359 C104.43651584 396.80780511 113.42290385 392.13648259 122.0625 385.625 C122.77809082 385.08641357 123.49368164 384.54782715 124.23095703 383.99291992 C129.09133983 380.30965242 133.76574848 376.51068575 138.25 372.375 C139.95693262 370.83178261 141.66534803 369.29020422 143.375 367.75 C144.21933594 366.98558594 145.06367187 366.22117187 145.93359375 365.43359375 C147.73434114 363.83326681 149.5505398 362.30697248 151.4375 360.8125 C157.91913053 355.19508687 163.14460127 348.23357339 168.25 341.375 C168.68473633 340.79105469 169.11947266 340.20710938 169.56738281 339.60546875 C196.28088 303.45622104 211.97479061 260.56332181 211.64111328 215.39282227 C211.62497735 212.80887306 211.64111567 210.22648188 211.66015625 207.64257812 C211.67500196 195.97032845 210.44992049 184.8306792 208.25 173.375 C208.05664062 172.35124268 207.86328125 171.32748535 207.6640625 170.27270508 C200.81957352 136.36868333 185.06119163 104.40315455 162.25 78.375 C161.54617188 77.56160156 160.84234375 76.74820313 160.1171875 75.91015625 C157.86787622 73.35851818 155.57317236 70.8595559 153.25 68.375 C152.37988281 67.43914062 151.50976562 66.50328125 150.61328125 65.5390625 C142.60323901 57.12378343 133.66667207 50.1493167 124.25 43.375 C123.61690918 42.91851074 122.98381836 42.46202148 122.33154297 41.99169922 C105.93080935 30.30306784 88.23503676 21.96396918 69.25 15.375 C68.51620117 15.11847656 67.78240234 14.86195313 67.02636719 14.59765625 C57.26570702 11.23347902 47.45456734 8.92448244 37.25 7.375 C36.22503418 7.20581055 35.20006836 7.03662109 34.14404297 6.86230469 C23.24748259 5.20686855 12.50360473 4.97826997 1.5 5 C0.55789673 4.99987915 -0.38420654 4.9997583 -1.3548584 4.99963379 C-24.80296236 5.04233351 -48.51771802 7.13249609 -70.3359375 16.36328125 Z " fill="#ADAEAD" transform="translate(510.75,280.625)"/>
<path d="M0 0 C1.03133057 0.57669434 1.03133057 0.57669434 2.08349609 1.16503906 C22.37200552 12.62055751 41.18113274 28.02299134 55.7578125 46.20703125 C57.12545856 47.91063218 58.51171955 49.59976846 59.9296875 51.26171875 C66.88629605 59.5317119 72.46278255 68.74681996 78 78 C78.41958984 78.70012207 78.83917969 79.40024414 79.27148438 80.12158203 C89.15653536 96.91391452 95.75966532 115.81750497 99.57505798 134.89157104 C99.97070874 136.85466595 100.38547758 138.81388097 100.80175781 140.77270508 C103.09872568 152.1132073 103.4764017 163.14265655 103.375 174.6875 C103.37101196 175.60898834 103.36702393 176.53047668 103.36291504 177.47988892 C103.29353842 191.15049263 102.87748078 204.58636814 100 218 C99.73316406 219.26328125 99.46632813 220.5265625 99.19140625 221.828125 C98.27157495 225.60556553 97.19080044 229.301673 96 233 C95.58790283 234.29357422 95.58790283 234.29357422 95.16748047 235.61328125 C91.29010458 247.62965337 86.9809033 259.12757684 80.95263672 270.23291016 C80.01697947 271.96850401 79.11938973 273.7244478 78.22265625 275.48046875 C73.86777041 283.90386471 68.99450528 292.29024342 62.125 298.9375 C60.11192436 300.89136753 59.0493761 302.42425867 58 305 C57.34 305 56.68 305 56 305 C56 305.66 56 306.32 56 307 C55.34 307.66 54.68 308.32 54 309 C53.0964728 310.0350002 52.20159349 311.07757479 51.3125 312.125 C50.77625 312.75019531 50.24 313.37539063 49.6875 314.01953125 C48.59542809 315.30119898 47.51149704 316.58986733 46.4375 317.88671875 C38.36044815 327.45880183 28.58121991 336.23977617 18 343 C17.01 343 16.02 343 15 343 C15 343.66 15 344.32 15 345 C14.01 345 13.02 345 12 345 C12 345.66 12 346.32 12 347 C9.09451118 349.04169485 7.59857954 350 4 350 C4 350.66 4 351.32 4 352 C2.73308493 352.67408308 1.46129251 353.33900497 0.1875 354 C-0.52019531 354.37125 -1.22789062 354.7425 -1.95703125 355.125 C-4 356 -4 356 -7 356 C-7 356.66 -7 357.32 -7 358 C-8.64559818 358.75051581 -10.29149416 359.50037868 -11.9375 360.25 C-12.85402344 360.66765625 -13.77054688 361.0853125 -14.71484375 361.515625 C-15.79894531 362.00546875 -16.88304687 362.4953125 -18 363 C-18.6405835 363.30413818 -19.28116699 363.60827637 -19.94116211 363.92163086 C-26.34827504 366.89800284 -32.93274504 369.01753643 -39.6875 371.0625 C-41.42169189 371.589646 -41.42169189 371.589646 -43.19091797 372.12744141 C-62.54674911 377.93282862 -81.58833381 380.44296973 -101.75 380.4375 C-103.01742538 380.43910126 -103.01742538 380.43910126 -104.31045532 380.44073486 C-119.96699741 380.41240189 -134.75770481 378.77939071 -150 375 C-150.92780273 374.77006348 -151.85560547 374.54012695 -152.81152344 374.30322266 C-184.19760229 366.22516629 -212.87956352 350.50891195 -237 329 C-237.52078125 328.54093262 -238.0415625 328.08186523 -238.578125 327.60888672 C-254.39392969 313.63793301 -267.61723886 297.39864641 -278 279 C-278.38897461 278.31631348 -278.77794922 277.63262695 -279.17871094 276.92822266 C-286.05077991 264.72641089 -291.44464591 252.23567912 -296 239 C-296.40992188 237.8140625 -296.81984375 236.628125 -297.2421875 235.40625 C-312.92452009 185.32004048 -306.35002356 128.90140717 -282.375 82.6875 C-282.02719482 82.01227295 -281.67938965 81.3370459 -281.32104492 80.64135742 C-279.08941292 76.504179 -276.49487355 73.10060252 -273.36962891 69.59643555 C-271.62313431 67.56072642 -270.30708494 65.40047038 -269 63.0625 C-262.49545709 51.8949601 -253.79268476 42.59489758 -244.6875 33.5 C-243.93766846 32.75097412 -243.18783691 32.00194824 -242.4152832 31.23022461 C-237.94123776 26.80549859 -233.41856396 22.62473197 -228.390625 18.828125 C-226.01968042 17.01504973 -223.75991197 15.09845715 -221.4987793 13.15112305 C-216.94707201 9.24854118 -212.52751207 5.86003295 -207.1875 3.1328125 C-204.83096629 1.91246469 -202.62175764 0.53661417 -200.375 -0.875 C-181.02579819 -12.54451861 -159.25778887 -19.35449937 -137.125 -23.25 C-136.19896973 -23.41314697 -135.27293945 -23.57629395 -134.31884766 -23.74438477 C-87.67678049 -31.52911067 -40.98932046 -23.01438506 0 0 Z M-181 -5 C-182.36801253 -4.42931009 -183.73798248 -3.8633004 -185.109375 -3.30078125 C-213.83666247 8.66814486 -240.37448871 30.08886067 -259 55 C-259.82570909 56.07117202 -260.65259893 57.14143456 -261.48046875 58.2109375 C-265.96741264 63.14246455 -265.96741264 63.14246455 -268 69 C-268.66 69 -269.32 69 -270 69 C-270.67154933 70.28913487 -271.33708859 71.58140204 -272 72.875 C-272.556875 73.95394531 -272.556875 73.95394531 -273.125 75.0546875 C-274.13673746 76.94848977 -274.13673746 76.94848977 -274 79 C-274.66 79 -275.32 79 -276 79 C-276.93873691 81.02025905 -277.87592803 83.0412364 -278.8125 85.0625 C-279.33457031 86.18785156 -279.85664063 87.31320312 -280.39453125 88.47265625 C-288.41959895 106.10437433 -294.66678858 124.89465979 -298 144 C-298.22300781 145.19882812 -298.44601562 146.39765625 -298.67578125 147.6328125 C-306.29078441 196.43099605 -293.47850277 250.31914999 -264.875 290.5 C-263.27419315 292.68672309 -261.64236283 294.843719 -260 297 C-259.01773438 298.30130859 -259.01773438 298.30130859 -258.015625 299.62890625 C-226.58892647 340.08104093 -179.57589514 366.86872169 -128.86010742 374.07128906 C-119.1966166 375.25032552 -109.53281608 375.26593396 -99.8125 375.25 C-98.61235764 375.24883682 -98.61235764 375.24883682 -97.38796997 375.24765015 C-84.0195157 375.21010842 -71.36305526 374.27527319 -58.25 371.5625 C-57.16589844 371.34529297 -56.08179688 371.12808594 -54.96484375 370.90429688 C-45.7426658 369.22310814 -45.7426658 369.22310814 -37 366 C-34.11935027 364.55967513 -31.10039591 363.86404476 -28 363 C-20.73559852 360.95388314 -14.54372461 357.72129394 -8 354 C-6.04346029 352.93420074 -4.08516316 351.87162042 -2.125 350.8125 C8.85213664 344.86518567 18.5161384 337.58177019 27.6953125 329.12109375 C29.80356577 327.18078608 31.95069632 325.3030018 34.125 323.4375 C37.62760327 320.39390724 40.87694568 317.14743039 44.125 313.8359375 C45.73188898 312.26252538 47.35162892 310.87620985 49.125 309.5 C54.25865566 305.0359516 57.5955405 299.73555387 60.91552734 293.84277344 C62.33269368 291.4346754 63.90713199 289.15848474 65.50097656 286.86499023 C79.88512067 266.10694958 89.73709771 241.62811909 95 217 C95.15243164 216.32453125 95.30486328 215.6490625 95.46191406 214.953125 C98.13281762 202.67735226 98.28998406 190.38077727 98.3125 177.875 C98.31787781 176.67795441 98.31787781 176.67795441 98.32336426 175.45672607 C98.35928907 160.57200671 97.6719247 145.51060272 93.8125 131.0625 C93.59964355 130.24168945 93.38678711 129.42087891 93.16748047 128.57519531 C90.72441375 119.48705659 87.49304586 110.72972466 84 102 C83.60240479 100.980271 83.60240479 100.980271 83.19677734 99.93994141 C76.48885934 82.86103544 66.75476062 67.06241713 55 53 C54.50967285 52.40960938 54.0193457 51.81921875 53.51416016 51.2109375 C44.73850439 40.68785576 35.76076777 31.5387391 25 23 C23.98679687 22.18144531 22.97359375 21.36289062 21.9296875 20.51953125 C-9.34306179 -4.44146489 -50.0271858 -19.5386283 -90 -21 C-90.75571289 -21.03254883 -91.51142578 -21.06509766 -92.29003906 -21.09863281 C-122.32756605 -22.24634226 -153.58548781 -17.71769483 -181 -5 Z " fill="#9FA0A0" transform="translate(613,317)"/>
<path d="M0 0 C-0.4282326 2.89057007 -1.10562309 4.12872814 -3 6.4375 C-5.14751392 8.78644952 -5.14751392 8.78644952 -5.453125 11.3828125 C-6.06326629 14.30277437 -7.09279833 15.97305318 -8.75 18.4375 C-16.23775449 30.515104 -19.42924625 43.8578765 -18.875 57.921875 C-19 61 -19 61 -19.9152832 63.70507812 C-21.11955948 67.36317235 -21.83495761 71.01136434 -22.48046875 74.796875 C-22.61409821 75.56279968 -22.74772766 76.32872437 -22.88540649 77.11785889 C-23.32583384 79.66085412 -23.75749455 82.20522283 -24.1875 84.75 C-24.41268814 86.07124878 -24.41268814 86.07124878 -24.64242554 87.41918945 C-27.30085657 103.07484144 -29.62084805 118.7727985 -31.8125 134.5 C-31.95916107 135.55119019 -32.10582214 136.60238037 -32.25692749 137.6854248 C-33.82245231 148.95296906 -35.31047557 160.22297893 -36.58300781 171.52758789 C-37.20649031 176.71950333 -38.09572272 181.8511559 -39 187 C-39.54678941 190.24915044 -40.08545707 193.49963968 -40.625 196.75 C-41.07875 199.4725 -41.5325 202.195 -42 205 C-52.89 205 -63.78 205 -75 205 C-73.0591214 190.61500592 -71.03893516 176.24710184 -68.8984375 161.890625 C-68.6136384 159.97630088 -68.32885895 158.06197383 -68.0440979 156.14764404 C-67.4552162 152.19153936 -66.86516453 148.23561118 -66.27441406 144.27978516 C-65.51683087 139.20520486 -64.76375679 134.12996567 -64.01166344 129.05456924 C-63.42891354 125.12701147 -62.8431078 121.19991404 -62.25642776 117.27294159 C-61.97700899 115.39915341 -61.69871931 113.5251965 -61.42158127 111.65106964 C-61.03736838 109.05497257 -60.64887893 106.45955085 -60.25927734 103.86425781 C-60.14602615 103.0924971 -60.03277496 102.32073639 -59.91609192 101.52558899 C-59.11415109 96.22830219 -59.11415109 96.22830219 -58 94 C-57.80539388 92.57778196 -57.65698155 91.14904168 -57.53515625 89.71875 C-57.45716797 88.87699219 -57.37917969 88.03523437 -57.29882812 87.16796875 C-57.14130608 85.38966201 -56.98765806 83.61100785 -56.83789062 81.83203125 C-56.75861328 80.99027344 -56.67933594 80.14851562 -56.59765625 79.28125 C-56.53070557 78.50845703 -56.46375488 77.73566406 -56.39477539 76.93945312 C-56 75 -56 75 -54 73 C-53.9549714 71.33394172 -53.96125079 69.66621616 -54 68 C-53.30806531 63.5024245 -52.13433585 59.06849478 -49.9375 55.0625 C-48.81624856 52.92078845 -48.81624856 52.92078845 -48.8125 50 C-47.59490786 40.19628399 -39.16705225 31.24812914 -33 24 C-32.43539062 23.30132812 -31.87078125 22.60265625 -31.2890625 21.8828125 C-25.06155888 14.36887621 -10.69542949 0 0 0 Z " fill="#8EC157" transform="translate(550,439)"/>
<path d="M0 0 C0.33 0 0.66 0 1 0 C2.1558684 24.23042636 -5.16395329 47.04560769 -20.88671875 65.69921875 C-33.41846208 79.34283579 -51.99351101 91.46843352 -71 93 C-77.3332926 93.23710444 -83.66817541 93.272541 -90 93 C-90.33 92.67 -90.66 92.34 -91 92 C-92.62552303 92.00599824 -94.25093149 92.05598859 -95.875 92.125 C-112.03928836 92.18741038 -126.42550842 83.71712184 -138 73 C-138.74894531 72.35160156 -139.49789062 71.70320312 -140.26953125 71.03515625 C-142.84395726 68.55212998 -144.89349121 66.51116783 -145.15307617 62.828125 C-145.05486572 62.01859375 -144.95665527 61.2090625 -144.85546875 60.375 C-144.73896973 59.4070752 -144.6224707 58.43915039 -144.50244141 57.44189453 C-143.5676217 51.0380616 -142.56409698 44.65027263 -141.47094727 38.27148438 C-141.05765222 35.84655661 -140.65855844 33.41953731 -140.25976562 30.9921875 C-139.99825332 29.45037515 -139.73591478 27.90870265 -139.47265625 26.3671875 C-139.3548732 25.64127411 -139.23709015 24.91536072 -139.11573792 24.16744995 C-138.81109935 22.43180508 -138.41407904 20.71283576 -138 19 C-137.34 18.67 -136.68 18.34 -136 18 C-135.72027344 19.02738281 -135.44054687 20.05476563 -135.15234375 21.11328125 C-132.62580173 30.00189055 -129.73810441 37.60341394 -124 45 C-123.45085938 45.71542969 -122.90171875 46.43085937 -122.3359375 47.16796875 C-114.90929452 55.62518113 -102.51228262 61.5769657 -91.3828125 62.8203125 C-90.26648438 62.87960937 -89.15015625 62.93890625 -88 63 C-87.26233398 63.04092773 -86.52466797 63.08185547 -85.76464844 63.12402344 C-74.48528478 63.66582693 -64.68734746 63.00001533 -54 59 C-53.37754395 58.78037598 -52.75508789 58.56075195 -52.11376953 58.33447266 C-31.30227232 50.98464872 -15.42620047 36.78415034 -5.66552734 16.98999023 C-3.07465751 11.49732001 -1.21259896 5.96194487 0 0 Z " fill="#2A92C8" transform="translate(667,482)"/>
<path d="M0 0 C0.9658905 0.00498505 1.93178101 0.00997009 2.92694092 0.0151062 C63.14920836 0.37913549 116.07002582 23.63943763 158.43945312 66.2644043 C164.59716855 72.5864742 170.11441264 79.20317756 175.25 86.375 C175.960354 87.35944092 175.960354 87.35944092 176.68505859 88.36376953 C197.42001162 117.41455159 209.60152247 149.28437045 215.25 184.375 C215.42869629 185.46143799 215.60739258 186.54787598 215.79150391 187.66723633 C216.28938485 191.6934972 216.41130952 195.65364636 216.41796875 199.703125 C216.4221582 200.48635132 216.42634766 201.26957764 216.43066406 202.07653809 C216.44038155 204.59274395 216.4404671 207.10877861 216.4375 209.625 C216.43709213 210.90340759 216.43709213 210.90340759 216.43667603 212.2076416 C216.42243334 221.86395366 216.40686669 231.50778464 215.4375 241.125 C215.36748779 241.8665332 215.29747559 242.60806641 215.2253418 243.37207031 C214.98046875 245.359375 214.98046875 245.359375 214.25 248.375 C212.765 249.365 212.765 249.365 211.25 250.375 C208.82715208 246.74072812 209.16284423 245.69790211 209.609375 241.44921875 C210.35056023 232.90914213 210.47130522 224.41484707 210.49023438 215.84545898 C210.49992285 213.2084984 210.53106007 210.57232552 210.5625 207.93554688 C210.63583318 196.14196377 209.49116267 184.94836689 207.25 173.375 C207.05647949 172.35172607 206.86295898 171.32845215 206.66357422 170.27416992 C199.83004399 136.37330286 184.05995472 104.39586243 161.25 78.375 C160.53457031 77.55 159.81914063 76.725 159.08203125 75.875 C156.84205502 73.3376818 154.55934249 70.84929552 152.25 68.375 C151.45335937 67.51261719 150.65671875 66.65023437 149.8359375 65.76171875 C142.05074776 57.63548596 133.35834306 50.94694877 124.25 44.375 C123.61545898 43.91706055 122.98091797 43.45912109 122.32714844 42.98730469 C105.92785111 31.30095071 88.23257741 22.96311563 69.25 16.375 C68.51620117 16.11847656 67.78240234 15.86195313 67.02636719 15.59765625 C57.26570702 12.23347902 47.45456734 9.92448244 37.25 8.375 C36.22503418 8.20581055 35.20006836 8.03662109 34.14404297 7.86230469 C23.24748259 6.20686855 12.50360473 5.97826997 1.5 6 C0.55789673 5.99987915 -0.38420654 5.9997583 -1.3548584 5.99963379 C-24.81869952 6.04236217 -48.50416172 8.15425486 -70.34375 17.36328125 C-76.61828659 20.00143868 -82.93838494 22.63860918 -89.75 23.375 C-89.75 24.035 -89.75 24.695 -89.75 25.375 C-91.49122549 26.41072896 -93.24336595 27.4281252 -95 28.4375 C-95.97453125 29.00597656 -96.9490625 29.57445312 -97.953125 30.16015625 C-100.75 31.375 -100.75 31.375 -103.109375 31.05859375 C-103.65078125 30.83300781 -104.1921875 30.60742188 -104.75 30.375 C-100.02853153 23.07818509 -91.58506882 19.48201005 -83.75 16.375 C-82.8321875 15.9728125 -81.914375 15.570625 -80.96875 15.15625 C-75.61080553 12.829062 -70.54639003 10.92640594 -64.80859375 9.83203125 C-62.11281771 9.23353828 -59.6367519 8.16157084 -57.0703125 7.16015625 C-51.7649242 5.36489859 -46.24059087 4.42506368 -40.75 3.375 C-40.07283936 3.24429611 -39.39567871 3.11359222 -38.69799805 2.97892761 C-25.74524844 0.5407374 -13.16136973 -0.11466291 0 0 Z " fill="#808080" transform="translate(510.75,280.625)"/>
<path d="M0 0 C2.24213513 2.07714858 3.71493034 4.03478615 5.12890625 6.73828125 C5.51900879 7.46917969 5.90911133 8.20007813 6.31103516 8.953125 C6.93051025 10.12101563 6.93051025 10.12101563 7.5625 11.3125 C12.12369749 19.71036048 17.21473493 27.40444504 23 35 C23.65484375 35.86753906 24.3096875 36.73507812 24.984375 37.62890625 C56.09226747 77.67067693 102.99262776 103.94946231 153.13989258 111.07128906 C162.8033834 112.25032552 172.46718392 112.26593396 182.1875 112.25 C183.38764236 112.24883682 183.38764236 112.24883682 184.61203003 112.24765015 C197.9804843 112.21010842 210.63694474 111.27527319 223.75 108.5625 C224.83410156 108.34529297 225.91820312 108.12808594 227.03515625 107.90429688 C236.2573342 106.22310814 236.2573342 106.22310814 245 103 C247.88064973 101.55967513 250.89960409 100.86404476 254 100 C262.23415938 97.68073772 269.26946551 93.76240721 276.62890625 89.46484375 C277.43199219 89.00207031 278.23507812 88.53929687 279.0625 88.0625 C279.77535156 87.64097656 280.48820312 87.21945312 281.22265625 86.78515625 C281.80917969 86.52605469 282.39570312 86.26695312 283 86 C283.66 86.33 284.32 86.66 285 87 C284.875 88.8125 284.875 88.8125 284 91 C280.79116175 92.95320589 278.7794561 94 275 94 C275 94.66 275 95.32 275 96 C273.35440182 96.75051581 271.70850584 97.50037868 270.0625 98.25 C269.14597656 98.66765625 268.22945312 99.0853125 267.28515625 99.515625 C266.20105469 100.00546875 265.11695313 100.4953125 264 101 C263.3594165 101.30413818 262.71883301 101.60827637 262.05883789 101.92163086 C255.65172496 104.89800284 249.06725496 107.01753643 242.3125 109.0625 C241.15637207 109.41393066 240.00024414 109.76536133 238.80908203 110.12744141 C219.45325089 115.93282862 200.41166619 118.44296973 180.25 118.4375 C178.98257462 118.43910126 178.98257462 118.43910126 177.68954468 118.44073486 C162.03300259 118.41240189 147.24229519 116.77939071 132 113 C131.07219727 112.77006348 130.14439453 112.54012695 129.18847656 112.30322266 C97.80239771 104.22516629 69.12043648 88.50891195 45 67 C44.47921875 66.54093262 43.9584375 66.08186523 43.421875 65.60888672 C27.51261625 51.55538 14.65215076 35.33489666 4 17 C3.37609375 15.99710938 2.7521875 14.99421875 2.109375 13.9609375 C-2.14442527 6.85210911 -2.14442527 6.85210911 -1.375 2.3125 C-0.92125 1.549375 -0.4675 0.78625 0 0 Z " fill="#80807F" transform="translate(331,579)"/>
<path d="M0 0 C11.5991028 6.40728882 16.89635814 32.17103124 20.34472656 43.95410156 C21.45421341 48.05269719 22.35110129 52.16799587 23.18429565 56.33270264 C23.5800393 58.29587978 23.99483201 60.25519041 24.41113281 62.21411133 C26.70810068 73.55461355 27.0857767 84.5840628 26.984375 96.12890625 C26.98038696 97.05039459 26.97639893 97.97188293 26.97229004 98.92129517 C26.90291342 112.59189888 26.48685578 126.02777439 23.609375 139.44140625 C23.34253906 140.7046875 23.07570313 141.96796875 22.80078125 143.26953125 C21.88094995 147.04697178 20.80017544 150.74307925 19.609375 154.44140625 C19.33464355 155.30378906 19.05991211 156.16617188 18.77685547 157.0546875 C14.89947958 169.07105962 10.5902783 180.56898309 4.56201172 191.67431641 C3.62635447 193.40991026 2.72876473 195.16585405 1.83203125 196.921875 C-2.52285459 205.34527096 -7.39611972 213.73164967 -14.265625 220.37890625 C-16.27870064 222.33277378 -17.3412489 223.86566492 -18.390625 226.44140625 C-19.050625 226.44140625 -19.710625 226.44140625 -20.390625 226.44140625 C-20.390625 227.10140625 -20.390625 227.76140625 -20.390625 228.44140625 C-21.050625 229.10140625 -21.710625 229.76140625 -22.390625 230.44140625 C-23.2941522 231.47640645 -24.18903151 232.51898104 -25.078125 233.56640625 C-25.614375 234.19160156 -26.150625 234.81679688 -26.703125 235.4609375 C-27.79519691 236.74260523 -28.87912796 238.03127358 -29.953125 239.328125 C-38.03017685 248.90020808 -47.80940509 257.68118242 -58.390625 264.44140625 C-59.380625 264.44140625 -60.370625 264.44140625 -61.390625 264.44140625 C-61.390625 265.10140625 -61.390625 265.76140625 -61.390625 266.44140625 C-62.380625 266.44140625 -63.370625 266.44140625 -64.390625 266.44140625 C-64.390625 267.10140625 -64.390625 267.76140625 -64.390625 268.44140625 C-67.29611382 270.4831011 -68.79204546 271.44140625 -72.390625 271.44140625 C-72.390625 272.10140625 -72.390625 272.76140625 -72.390625 273.44140625 C-73.380625 273.11140625 -74.370625 272.78140625 -75.390625 272.44140625 C-70.82008116 267.56615948 -65.6265291 263.57619747 -60.390625 259.44140625 C-53.17997216 253.71561377 -46.32170258 247.71927122 -39.60546875 241.4296875 C-37.5413171 239.49854652 -35.45516555 237.60045128 -33.33203125 235.734375 C-26.90499908 230.05730859 -21.74359869 224.61460487 -17.52734375 217.13671875 C-15.79668958 214.07591584 -13.89520786 211.19233631 -11.88964844 208.30639648 C2.49449567 187.54835583 12.34647271 163.06952534 17.609375 138.44140625 C17.76180664 137.7659375 17.91423828 137.09046875 18.07128906 136.39453125 C20.74219262 124.11875851 20.89935906 111.82218352 20.921875 99.31640625 C20.92546021 98.51837585 20.92904541 97.72034546 20.93273926 96.89813232 C20.96866407 82.01341296 20.2812997 66.95200897 16.421875 52.50390625 C16.20901855 51.6830957 15.99616211 50.86228516 15.77685547 50.01660156 C11.19298936 32.96474996 4.57486054 15.67687187 -4.390625 0.44140625 C-2.390625 -0.55859375 -2.390625 -0.55859375 0 0 Z " fill="#A6A6A7" transform="translate(689.390625,395.55859375)"/>
<path d="M0 0 C0.99 0.495 0.99 0.495 2 1 C1.01 2.32 0.02 3.64 -1 5 C-0.505 5.99 -0.505 5.99 0 7 C-0.72703125 7.40089844 -1.4540625 7.80179687 -2.203125 8.21484375 C-11.23923354 13.3237205 -19.58217007 19.12686868 -27.4375 25.9375 C-29.92529628 27.93987262 -32.03729573 28.89956699 -35 30 C-35.33 30.66 -35.66 31.32 -36 32 C-36.66 32 -37.32 32 -38 32 C-38.32291016 32.81791016 -38.32291016 32.81791016 -38.65234375 33.65234375 C-40.4611736 36.80337778 -42.95638485 39.07954337 -45.5625 41.5625 C-50.5488933 46.40941904 -54.97302025 51.43249296 -59.2578125 56.91796875 C-61 59 -61 59 -63 60 C-63.33 60.99 -63.66 61.98 -64 63 C-64.99 63.495 -64.99 63.495 -66 64 C-67.04349839 65.63978318 -68.03182008 67.31464976 -69 69 C-69.79006125 70.23019918 -70.58187443 71.45927419 -71.375 72.6875 C-74.26728314 77.28526317 -76.64532795 82.11029804 -79 87 C-79.66 87 -80.32 87 -81 87 C-81.12221924 87.56195068 -81.24443848 88.12390137 -81.37036133 88.70288086 C-82.05425964 91.19795617 -82.99891679 93.40097669 -84.07421875 95.75390625 C-92.35156527 114.13594095 -98.42349004 132.15575241 -102 152 C-102.15098145 152.80066895 -102.30196289 153.60133789 -102.45751953 154.42626953 C-108.69824242 188.24196647 -105.3021868 224.82761085 -93.5324707 257.14477539 C-92.79513766 259.7137776 -92.99994614 261.53832895 -94 264 C-94.66 264.33 -95.32 264.66 -96 265 C-96.71614583 263.27473958 -97.43229167 261.54947917 -98.1484375 259.82421875 C-99.06806692 257.73466068 -99.06806692 257.73466068 -101 255 C-104.19777553 246.23524682 -106.33507795 237.16581105 -108 228 C-108.13825195 227.27893066 -108.27650391 226.55786133 -108.41894531 225.81494141 C-117.99154871 174.33248636 -106.94439486 119.1574164 -79 75 C-76.28448805 71.07315674 -73.34181064 67.38423356 -70.25 63.75 C-68.03969851 61.26683323 -68.03969851 61.26683323 -67.1015625 59.140625 C-61.52986745 48.31335944 -50.24797398 38.30222071 -41 30.5625 C-38.03673901 28.23064296 -38.03673901 28.23064296 -36.36328125 25.76171875 C-33.09018566 21.93679547 -29.24929522 19.19565655 -25.1875 16.25 C-24.35033447 15.63890381 -23.51316895 15.02780762 -22.65063477 14.39819336 C-17.36591043 10.5869928 -12.00558694 6.94714533 -6.4375 3.5625 C-5.81319092 3.17932617 -5.18888184 2.79615234 -4.5456543 2.40136719 C-3.06884147 1.53209212 -1.53826228 0.75522474 0 0 Z " fill="#B3B3B4" transform="translate(408,306)"/>
<path d="M0 0 C5.16406783 2.1434314 9.93547442 5.65709763 12.40234375 10.8203125 C13.9896764 16.60940806 14.34049191 22.89827783 11.9296875 28.4765625 C8.66192956 33.2442749 4.58795462 36.45153065 -1 38 C-7.53848959 39.00225023 -12.83164138 38.54656163 -18.27734375 34.6328125 C-22.80221634 30.343931 -25.70322257 25.02712978 -26.3125 18.8125 C-25.81739137 12.77217475 -23.62204043 8.11356281 -19 4.125 C-12.74093579 -0.30850381 -7.65088331 -1.0847551 0 0 Z " fill="#1D4F1D" transform="translate(498,339)"/>
<path d="M0 0 C2.22189824 2.22189824 2.92598892 4.08482708 4 7 C4.33 6.34 4.66 5.68 5 5 C5.66 5 6.32 5 7 5 C7.22026855 5.54712646 7.44053711 6.09425293 7.66748047 6.65795898 C30.03743801 61.73175933 71.0840769 101.85776931 125.6640625 125.04101562 C131.03372808 127.24545191 136.48748959 129.1837921 142 131 C141.34 131.33 140.68 131.66 140 132 C140 132.99 140 133.98 140 135 C140.66 135.33 141.32 135.66 142 136 C135.6253339 134.72379693 129.77229272 132.99918137 123.75 130.5625 C122.89446533 130.21687012 122.03893066 129.87124023 121.1574707 129.51513672 C94.13760234 118.31603151 71.04904936 102.11998787 50 82 C49.32324219 81.36449219 48.64648438 80.72898437 47.94921875 80.07421875 C42.81423918 75.12811199 38.425573 69.57723603 34 64 C33.18144531 62.98679687 32.36289062 61.97359375 31.51953125 60.9296875 C18.50672972 44.62640867 2.74812545 21.03737414 0 0 Z " fill="#5F5F5E" transform="translate(309,563)"/>
<path d="M0 0 C0.33 0 0.66 0 1 0 C1.48741178 10.38006571 0.03977033 19.86185582 -2 30 C-2.99 29.34 -3.98 28.68 -5 28 C-5.29132813 28.6290625 -5.58265625 29.258125 -5.8828125 29.90625 C-11.16342076 40.93242573 -19.07311519 53.00227774 -30 59 C-30.67160156 59.41121094 -31.34320312 59.82242188 -32.03515625 60.24609375 C-46.26178509 68.60663671 -62.39922926 71.09333192 -78.62109375 68.3984375 C-85.37837838 66.62162162 -85.37837838 66.62162162 -88 64 C-86.71867188 63.97421875 -85.43734375 63.9484375 -84.1171875 63.921875 C-73.51342404 63.61432574 -64.05458514 62.65833109 -54 59 C-53.37754395 58.78182617 -52.75508789 58.56365234 -52.11376953 58.33886719 C-31.30399383 50.98445008 -15.42614861 36.78404516 -5.66552734 16.98999023 C-3.07465751 11.49732001 -1.21259896 5.96194487 0 0 Z " fill="#0A426B" transform="translate(667,482)"/>
<path d="M0 0 C-2.35509879 2.35509879 -3.54380625 2.48080937 -6.75 3.1875 C-18.74835079 6.34827131 -28.33495008 12.19519121 -37 21 C-37.66 20.01 -38.32 19.02 -39 18 C-38.34 18 -37.68 18 -37 18 C-36.71125 17.4225 -36.4225 16.845 -36.125 16.25 C-35.08333333 14.16666667 -34.04166667 12.08333333 -33 10 C-40.9871346 14.06146412 -48.11123225 18.22414156 -55 24 C-55.99 24.7425 -56.98 25.485 -58 26.25 C-70.61730861 36.99035361 -79.10514624 52.7889656 -85 68 C-85.33 68 -85.66 68 -86 68 C-85.3190793 48.59376008 -72.82317679 30.61127724 -59.40625 17.45703125 C-41.67433729 1.94160763 -22.77453349 -0.56444256 0 0 Z " fill="#1E5219" transform="translate(583,429)"/>
<path d="M0 0 C6.15826509 0.46678339 10.61279557 2.50217483 16 5.4375 C16.83233154 5.88488525 17.66466309 6.33227051 18.5222168 6.79321289 C49.7535371 23.85645505 75.44411394 48.24725957 94.6875 78.125 C95.22938965 78.95515625 95.7712793 79.7853125 96.32958984 80.640625 C96.82281738 81.42179687 97.31604492 82.20296875 97.82421875 83.0078125 C98.26854248 83.70535645 98.71286621 84.40290039 99.1706543 85.12158203 C100 87 100 87 99 90 C98.67 89.34 98.34 88.68 98 88 C96.68 88 95.36 88 94 88 C92.71069336 86.66162109 92.71069336 86.66162109 91.58984375 84.7734375 C91.16340576 84.07847168 90.73696777 83.38350586 90.29760742 82.66748047 C89.62435425 81.53270264 89.62435425 81.53270264 88.9375 80.375 C77.72509181 62.32759202 63.95046573 45.92263229 47 33 C45.99582031 32.19175781 44.99164062 31.38351562 43.95703125 30.55078125 C32.30302141 21.21860875 19.6721055 14.12891494 6.265625 7.62890625 C3 6 3 6 0 4 C0 2.68 0 1.36 0 0 Z " fill="#666666" transform="translate(591,308)"/>
<path d="M0 0 C2.67179249 4.77105802 4 9.53911054 4 15 C3.34 15 2.68 15 2 15 C2.3110685 17.06271639 2.62391516 19.12516466 2.9375 21.1875 C3.11152344 22.33605469 3.28554688 23.48460937 3.46484375 24.66796875 C4.31772869 30.20853764 4.31772869 30.20853764 6.0625 35.5 C7 38 7 38 6.83203125 40.1953125 C7.06580304 44.09875778 8.76694966 47.02255827 10.625 50.375 C10.98529297 51.04039795 11.34558594 51.7057959 11.71679688 52.39135742 C14.34283183 57.12112524 17.30959241 61.03281184 21 65 C21 65.66 21 66.32 21 67 C12.81218064 67.55610912 8.23276991 62.72522046 2.23828125 57.671875 C-7.85236491 48.77442933 -7.85236491 48.77442933 -8.1796875 44.84033203 C-8.07914063 44.02935059 -7.97859375 43.21836914 -7.875 42.3828125 C-7.75640625 41.41375977 -7.6378125 40.44470703 -7.515625 39.44628906 C-6.55729145 33.04106349 -5.52593717 26.65221816 -4.41601562 20.27148438 C-3.99498188 17.84609279 -3.58304648 15.41926841 -3.171875 12.9921875 C-2.90678437 11.45042886 -2.6411789 9.90875863 -2.375 8.3671875 C-2.25205566 7.64127411 -2.12911133 6.91536072 -2.00244141 6.16744995 C-1.11508124 1.11508124 -1.11508124 1.11508124 0 0 Z " fill="#0D436A" transform="translate(530,500)"/>
<path d="M0 0 C7.70464755 11.55697133 10.30370651 27.94629147 12.57373047 41.46337891 C12.87492747 43.25572535 13.19912477 45.04427879 13.53955078 46.82958984 C15.24667886 56.44676481 15.31251961 65.89298008 15.25 75.625 C15.24723053 76.46228638 15.24446106 77.29957275 15.24160767 78.16223145 C15.20447632 87.7076154 15.13182594 97.24314312 14.1875 106.75 C14.08260254 107.8630249 14.08260254 107.8630249 13.97558594 108.99853516 C13.73046875 110.984375 13.73046875 110.984375 13 114 C11.515 114.99 11.515 114.99 10 116 C7.57715208 112.36572812 7.91284423 111.32290211 8.359375 107.07421875 C9.10056023 98.53414213 9.22130522 90.03984707 9.24023438 81.47045898 C9.24992285 78.8334984 9.28106007 76.19732552 9.3125 73.56054688 C9.409385 58.03832119 7.31789898 43.18341356 3.5625 28.125 C3.35367188 27.25423828 3.14484375 26.38347656 2.9296875 25.48632812 C1.436028 19.38042914 -0.37832609 13.48044781 -2.59375 7.59375 C-3 5 -3 5 -1.59375 2.15625 C-1.0678125 1.4446875 -0.541875 0.733125 0 0 Z " fill="#878787" transform="translate(712,415)"/>
<path d="M0 0 C5.18474742 1.50811094 8.33742246 4.78346505 12.125 8.4375 C12.78661133 9.06785156 13.44822266 9.69820313 14.12988281 10.34765625 C15.46876647 11.62759535 16.80410041 12.91125863 18.13574219 14.19873047 C19.76091519 15.76899322 21.39774812 17.32557872 23.0390625 18.87890625 C41.86063673 37.07671073 59.45811248 62.18412653 68 87 C67.625 90.3125 67.625 90.3125 67 93 C66.01 93 65.02 93 64 93 C63.38125 91.52853516 63.38125 91.52853516 62.75 90.02734375 C53.92924453 69.29610595 42.90937429 50.01197836 28 33 C27.29617188 32.18660156 26.59234375 31.37320312 25.8671875 30.53515625 C22.64856013 26.88391768 19.37341141 23.33350305 15.87109375 19.953125 C15.33331299 19.43097412 14.79553223 18.90882324 14.24145508 18.37084961 C13.19475076 17.36177037 12.13907067 16.36188597 11.07299805 15.37329102 C7.37072481 11.80984535 5.85776664 8.66418007 4 4 C1.9648239 2.5181036 1.9648239 2.5181036 0 2 C0 1.34 0 0.68 0 0 Z " fill="#676767" transform="translate(644,326)"/>
<path d="M0 0 C2.24213513 2.07714858 3.71493034 4.03478615 5.12890625 6.73828125 C5.51900879 7.46917969 5.90911133 8.20007813 6.31103516 8.953125 C6.93051025 10.12101563 6.93051025 10.12101563 7.5625 11.3125 C12.12369749 19.71036048 17.21473493 27.40444504 23 35 C23.65484375 35.86753906 24.3096875 36.73507812 24.984375 37.62890625 C35.7092071 51.43380377 48.02543955 63.50220218 62 74 C61.34 75.32 60.68 76.64 60 78 C36.13789811 67.06996693 16.73837727 38.92579096 4 17 C3.37609375 15.99710938 2.7521875 14.99421875 2.109375 13.9609375 C-2.14442527 6.85210911 -2.14442527 6.85210911 -1.375 2.3125 C-0.92125 1.549375 -0.4675 0.78625 0 0 Z " fill="#6B6B6B" transform="translate(331,579)"/>
<path d="M0 0 C3.33063644 1.60643144 6.24918776 3.64852614 9.26171875 5.76953125 C26.51575441 17.49720268 45.21389283 25.25521162 64.76171875 32.33203125 C63.77171875 32.82703125 63.77171875 32.82703125 62.76171875 33.33203125 C62.76171875 34.32203125 62.76171875 35.31203125 62.76171875 36.33203125 C63.42171875 36.66203125 64.08171875 36.99203125 64.76171875 37.33203125 C58.38705265 36.05582818 52.53401147 34.33121262 46.51171875 31.89453125 C45.65618408 31.54890137 44.80064941 31.20327148 43.91918945 30.84716797 C25.96608494 23.4060249 8.5850977 13.98668055 -6.23828125 1.33203125 C-3.8362612 -0.26931545 -2.82898529 -0.84425215 0 0 Z " fill="#5C5C5B" transform="translate(386.23828125,661.66796875)"/>
<path d="M0 0 C0.33 0 0.66 0 1 0 C1.48741178 10.38006571 0.03977033 19.86185582 -2 30 C-2.99 29.34 -3.98 28.68 -5 28 C-5.29132812 28.6290625 -5.58265625 29.258125 -5.8828125 29.90625 C-9.10236031 36.62882781 -12.70298082 42.70298082 -18 48 C-18.99 48 -19.98 48 -21 48 C-21.495 46.515 -21.495 46.515 -22 45 C-23.32 45.66 -24.64 46.32 -26 47 C-25.45197022 43.14666559 -23.85372678 41.6715548 -21 39.125 C-10.17692953 28.62937911 -3.10825211 14.69355544 0 0 Z " fill="#073159" transform="translate(667,482)"/>
<path d="M0 0 C0.78503906 0.17144531 1.57007813 0.34289062 2.37890625 0.51953125 C4.4375 1.1875 4.4375 1.1875 6.4375 3.1875 C7.85639764 8.11190945 7.85639764 8.11190945 7.4375 11.1875 C5.56373014 14.10584272 3.43588944 16.42198127 0.4375 18.1875 C-1.80078125 17.87109375 -1.80078125 17.87109375 -3.5625 17.1875 C-3.5625 16.5275 -3.5625 15.8675 -3.5625 15.1875 C-4.366875 14.960625 -5.17125 14.73375 -6 14.5 C-7.2684375 13.8503125 -7.2684375 13.8503125 -8.5625 13.1875 C-9.25 10.625 -9.25 10.625 -9.5625 8.1875 C-10.2225 7.8575 -10.8825 7.5275 -11.5625 7.1875 C-11.0001049 3.92560844 -10.1484495 2.27615152 -7.5625 0.1875 C-4.33044982 -0.88985006 -3.22672565 -0.73890423 0 0 Z " fill="#276E29" transform="translate(493.5625,348.8125)"/>
<path d="M0 0 C2.22189824 2.22189824 2.92598892 4.08482708 4 7 C4.33 6.34 4.66 5.68 5 5 C5.66 5 6.32 5 7 5 C7.22550537 5.5576001 7.45101074 6.1152002 7.68334961 6.68969727 C12.18713266 17.73639115 16.91167383 28.20270844 23.34765625 38.26171875 C25 41 25 41 25 43 C24.38125 42.814375 23.7625 42.62875 23.125 42.4375 C20.95839822 41.76313824 20.95839822 41.76313824 19 43 C13.63380807 33.79610113 8.58251881 24.57605322 4.4375 14.75 C4.10363281 13.96520264 3.76976562 13.18040527 3.42578125 12.37182617 C1.73363002 8.25387307 0.51836695 4.45937597 0 0 Z " fill="#7A7A7A" transform="translate(309,563)"/>
<path d="M0 0 C5.70457674 3.11158731 10.30528565 7.41160821 15.0234375 11.8125 C21.14145421 17.51861421 27.24265802 23.04112371 34 28 C33.34 29.32 32.68 30.64 32 32 C20.07338262 26.53701426 6.70914314 13.65675669 -1 3 C-0.67 2.01 -0.34 1.02 0 0 Z " fill="#5B5C5B" transform="translate(359,625)"/>
<path d="M0 0 C3 1 3 1 5 4 C4.87239756 15.11736259 0.72076956 25.68012971 -3 36 C-3.99 35.67 -4.98 35.34 -6 35 C-6.2019139 29.79735173 -5.51059613 25.29282614 -4.125 20.3125 C-2.34206085 13.58953015 -0.9917804 6.89026383 0 0 Z " fill="#9A9B9B" transform="translate(719,526)"/>
<path d="M0 0 C6.97055657 1.74263914 9.17953403 5.77395668 12.8671875 11.703125 C16.17072079 16.80968561 20.06170678 21.3688589 24 26 C23.34 26.66 22.68 27.32 22 28 C19 28 19 28 16.62890625 25.8984375 C13.91774392 22.90931054 11.38347615 19.83085436 8.9375 16.625 C8.51662109 16.08617187 8.09574219 15.54734375 7.66210938 14.9921875 C0 5.01362645 0 5.01362645 0 0 Z " fill="#6A6B6B" transform="translate(329,604)"/>
<path d="M0 0 C2.48204549 3.72306823 3.7407599 7.47663529 5.1875 11.6875 C5.47302734 12.46544922 5.75855469 13.24339844 6.05273438 14.04492188 C7.92186647 19.49769408 8.27735252 23.34849398 7 29 C6.34 29.66 5.68 30.32 5 31 C2.81399702 25.32803368 0.84522503 19.64269451 -0.875 13.8125 C-1.25011719 12.64170898 -1.25011719 12.64170898 -1.6328125 11.44726562 C-3.31128211 5.69460379 -3.31128211 5.69460379 -1.6328125 1.94921875 C-1.09398437 1.30597656 -0.55515625 0.66273438 0 0 Z " fill="#7B7C7B" transform="translate(712,415)"/>
<path d="M0 0 C5.21043634 1.50854538 8.38308889 4.83054512 12.1875 8.5 C13.17182007 9.43416748 13.17182007 9.43416748 14.17602539 10.38720703 C19.54162727 15.50011696 24.81435614 20.7045425 30 26 C27 26 27 26 24.625 23.8125 C23.325625 22.4203125 23.325625 22.4203125 22 21 C18.96027007 17.81199056 16.99100292 15.99550146 13 14 C17.62 18.62 22.24 23.24 27 28 C26.67 28.66 26.34 29.32 26 30 C22.87919783 26.99596406 19.78158233 23.96903048 16.6875 20.9375 C15.80642578 20.08994141 14.92535156 19.24238281 14.01757812 18.36914062 C9.3565777 13.77902994 6.1479677 10.18354338 4 4 C1.9648239 2.5181036 1.9648239 2.5181036 0 2 C0 1.34 0 0.68 0 0 Z " fill="#606260" transform="translate(644,326)"/>
<path d="M0 0 C-2.48942479 1.27024496 -4.99929482 2.45994033 -7.5390625 3.62890625 C-16.31197603 7.74067296 -23.21435357 11.95336717 -30 19 C-30.66 18.01 -31.32 17.02 -32 16 C-31.34 16 -30.68 16 -30 16 C-29.731875 15.46375 -29.46375 14.9275 -29.1875 14.375 C-28.5996875 13.199375 -28.5996875 13.199375 -28 12 C-27.63261719 11.01902344 -27.26523437 10.03804688 -26.88671875 9.02734375 C-24.46055409 5.13442943 -21.84431423 4.34821868 -17.625 3.1875 C-16.965 2.98447266 -16.305 2.78144531 -15.625 2.57226562 C-10.35078641 0.98054579 -5.51320706 -0.1575202 0 0 Z " fill="#4D8928" transform="translate(576,431)"/>
<path d="M0 0 C0.66 1.32 1.32 2.64 2 4 C0.7934375 5.11375 0.7934375 5.11375 -0.4375 6.25 C-2.89449389 8.88677393 -3.459572 9.64934642 -4 13 C-4.63654342 14.3479743 -5.29605388 15.68596724 -6 17 C-6.99 17 -7.98 17 -9 17 C-9.33 16.01 -9.66 15.02 -10 14 C-11.98 14.99 -11.98 14.99 -14 16 C-13.46240854 11.99995507 -11.53171366 10.18861338 -8.6875 7.4375 C-7.51767578 6.29087891 -7.51767578 6.29087891 -6.32421875 5.12109375 C-4.29133976 3.26587814 -2.23531294 1.6010365 0 0 Z " fill="#032D51" transform="translate(655,513)"/>
<path d="M0 0 C0.33 0 0.66 0 1 0 C1.48741178 10.38006571 0.03977033 19.86185582 -2 30 C-3.50390625 28.86328125 -3.50390625 28.86328125 -5 27 C-5.75006576 17.76737235 -2.79620198 8.67472893 0 0 Z " fill="#183E60" transform="translate(667,482)"/>
<path d="M0 0 C2.31 0.33 4.62 0.66 7 1 C7.93065133 3.60582371 8.14917407 4.64198224 7.0625 7.25 C6.711875 7.8275 6.36125 8.405 6 9 C4.00045254 9.04254356 1.99958364 9.04080783 0 9 C-1 8 -1 8 -1.125 5.0625 C-1 2 -1 2 0 0 Z " fill="#358B38" transform="translate(488,353)"/>
<path d="M0 0 C0.1875 2.875 0.1875 2.875 0 6 C-0.99 6.66 -1.98 7.32 -3 8 C-3 6.02 -3 4.04 -3 2 C-5.31 1.34 -7.62 0.68 -10 0 C-10 2.64 -10 5.28 -10 8 C-8.35 8.33 -6.7 8.66 -5 9 C-5.33 9.66 -5.66 10.32 -6 11 C-8.31 10.34 -10.62 9.68 -13 9 C-13.33 6.36 -13.66 3.72 -14 1 C-9.19953017 -3.0262005 -5.52809507 -1.67408544 0 0 Z " fill="#2F7D31" transform="translate(498,353)"/>
<path d="M0 0 C0.66 0.33 1.32 0.66 2 1 C-6.47698165 9.27514876 -17.5603245 14.23233657 -29 17 C-27.6875 15.5 -27.6875 15.5 -26 14 C-25.01 14 -24.02 14 -23 14 C-23 13.34 -23 12.68 -23 12 C-19.696686 11.11064623 -16.37705625 10.53725895 -13 10 C-13 9.34 -13 8.68 -13 8 C-12.195625 7.87625 -11.39125 7.7525 -10.5625 7.625 C-9.716875 7.41875 -8.87125 7.2125 -8 7 C-7.67 6.34 -7.34 5.68 -7 5 C-5.66666667 4.33333333 -4.33333333 3.66666667 -3 3 C-1.29078411 1.4587688 -1.29078411 1.4587688 0 0 Z " fill="#B9DE90" transform="translate(638,526)"/>
<path d="M0 0 C3.91939465 3.80411834 7.49102731 7.81576108 11 12 C8 12 8 12 5 10 C4.01 10 3.02 10 2 10 C0.25 8.375 0.25 8.375 -1 6 C-0.6875 2.75 -0.6875 2.75 0 0 Z " fill="#656665" transform="translate(354,616)"/>
<path d="M0 0 C1.48828125 1.08203125 1.48828125 1.08203125 3 3 C3.29296875 6.13671875 3.29296875 6.13671875 3.1875 9.6875 C3.14689453 11.45673828 3.14689453 11.45673828 3.10546875 13.26171875 C3.07066406 14.16535156 3.03585937 15.06898438 3 16 C2.01 16 1.02 16 0 16 C-1.06795656 10.42289352 -0.82622671 5.60563042 0 0 Z " fill="#173F18" transform="translate(508,349)"/>
<path d="M0 0 C1.38342139 2.76684278 0.74970206 4.41080634 0.22265625 7.4453125 C-0.05288086 9.05986328 -0.05288086 9.05986328 -0.33398438 10.70703125 C-0.53314453 11.83496094 -0.73230469 12.96289062 -0.9375 14.125 C-1.13279297 15.26066406 -1.32808594 16.39632812 -1.52929688 17.56640625 C-2.01376008 20.37865605 -2.50423624 23.18972408 -3 26 C-3.33 26 -3.66 26 -4 26 C-4.05380578 23.20807795 -4.09357669 20.4171859 -4.125 17.625 C-4.14175781 16.8309375 -4.15851562 16.036875 -4.17578125 15.21875 C-4.19335473 13.14507985 -4.10335168 11.07116759 -4 9 C-3.34 8.34 -2.68 7.68 -2 7 C-1.28072705 4.68234271 -0.6090107 2.34904126 0 0 Z " fill="#B9DE89" transform="translate(525,521)"/>
<path d="M0 0 C0.99 0 1.98 0 3 0 C3.33 1.65 3.66 3.3 4 5 C2.71064081 6.14842923 1.41843421 7.29366227 0.125 8.4375 C-0.95394531 9.39462891 -0.95394531 9.39462891 -2.0546875 10.37109375 C-4 12 -4 12 -6 13 C-6.33 12.01 -6.66 11.02 -7 10 C-6.34 10 -5.68 10 -5 10 C-4.731875 9.46375 -4.46375 8.9275 -4.1875 8.375 C-2.79166667 5.58333333 -1.39583333 2.79166667 0 0 Z " fill="#53922A" transform="translate(551,437)"/>
<path d="M0 0 C0.33 0.66 0.66 1.32 1 2 C-4.06957378 9.39025061 -9.4594796 15.86826213 -16 22 C-16 19 -16 19 -14.78515625 17.59765625 C-14.21667969 17.09105469 -13.64820313 16.58445312 -13.0625 16.0625 C-8.00934543 11.25786123 -4.07580156 5.62848786 0 0 Z " fill="#9DC866" transform="translate(657,505)"/>
<path d="M0 0 C2.22189824 2.22189824 2.92598892 4.08482708 4 7 C4.33 6.34 4.66 5.68 5 5 C5.66 5 6.32 5 7 5 C7.79953138 8.28696233 8.09658936 9.71023192 7 13 C6.01 13.33 5.02 13.66 4 14 C3.32739649 12.23141309 2.66211605 10.46003984 2 8.6875 C1.62875 7.70136719 1.2575 6.71523438 0.875 5.69921875 C0 3 0 3 0 0 Z " fill="#7F807F" transform="translate(309,563)"/>
<path d="M0 0 C0.33 0 0.66 0 1 0 C0.88570603 1.77155654 0.75816963 3.54226229 0.625 5.3125 C0.55539062 6.29863281 0.48578125 7.28476562 0.4140625 8.30078125 C0 11 0 11 -2 14 C-4 11 -4 11 -3.8125 8.125 C-2.98234135 4.93208211 -1.89607495 2.68610617 0 0 Z " fill="#124676" transform="translate(666,498)"/>
<path d="M0 0 C0.99 0.33 1.98 0.66 3 1 C1.27933894 6.44876003 -0.84705349 11.71169451 -3 17 C-3.33 17 -3.66 17 -4 17 C-3.58411954 10.80481527 -2.39748106 5.73310689 0 0 Z " fill="#446F3E" transform="translate(501,480)"/>
<path d="M0 0 C0.33 0 0.66 0 1 0 C1.21432579 6.64409958 0.51233701 12.53205867 -1 19 C-1.66 19 -2.32 19 -3 19 C-2.58955515 12.42208127 -2.13391403 6.25948114 0 0 Z " fill="#335D34" transform="translate(450,529)"/>
<path d="M0 0 C0.66 0.33 1.32 0.66 2 1 C2.31806054 8.7276932 2.32270836 14.93924474 -1 22 C-1.33 22 -1.66 22 -2 22 C-1.40711812 14.65835626 -0.761788 7.32613141 0 0 Z " fill="#D1EFA4" transform="translate(501,463)"/>
<path d="M0 0 C0.66 0 1.32 0 2 0 C1.38876602 3.56553155 0.40218232 6.66981698 -1 10 C-1.89130413 12.6739124 -2.47731534 15.23723823 -3 18 C-3.33 18 -3.66 18 -4 18 C-4 14.37 -4 10.74 -4 7 C-3.34 6.67 -2.68 6.34 -2 6 C-1.27306096 4.02111039 -0.60183749 2.02045442 0 0 Z " fill="#CCE9A9" transform="translate(500,489)"/>
<path d="M0 0 C5.28 0 10.56 0 16 0 C13.14206684 2.85793316 10.85334416 2.40799941 6.875 2.625 C5.59367188 2.69976562 4.31234375 2.77453125 2.9921875 2.8515625 C2.00476563 2.90054687 1.01734375 2.94953125 0 3 C0 2.01 0 1.02 0 0 Z " fill="#1A4F0F" transform="translate(567,429)"/>
<path d="M0 0 C-0.98828125 1.48828125 -0.98828125 1.48828125 -3 3 C-5.81127043 3.21714241 -8.3883345 3.28284276 -11.1875 3.1875 C-11.93708984 3.17396484 -12.68667969 3.16042969 -13.45898438 3.14648438 C-15.30629767 3.11118539 -17.15324066 3.05737917 -19 3 C-19 2.67 -19 2.34 -19 2 C-17.64455078 1.80083984 -17.64455078 1.80083984 -16.26171875 1.59765625 C-15.08222656 1.42105469 -13.90273438 1.24445312 -12.6875 1.0625 C-10.92986328 0.80146484 -10.92986328 0.80146484 -9.13671875 0.53515625 C-2.03130148 -0.67710049 -2.03130148 -0.67710049 0 0 Z " fill="#BBDC9A" transform="translate(598,543)"/>
<path d="M0 0 C0.66 0.66 1.32 1.32 2 2 C-2.55426184 4.66590937 -5.73946963 5.31563182 -11 5 C-10.67 4.01 -10.34 3.02 -10 2 C-8.8553125 2.0309375 -8.8553125 2.0309375 -7.6875 2.0625 C-4.89814214 2.12942841 -4.89814214 2.12942841 -2 1 C-1.34 1.33 -0.68 1.66 0 2 C0 1.34 0 0.68 0 0 Z " fill="#1B401A" transform="translate(501,372)"/>
<path d="M0 0 C3.08089673 2.77280706 4.68775452 5.06326356 6 9 C5.38125 8.814375 4.7625 8.62875 4.125 8.4375 C1.95839822 7.76313824 1.95839822 7.76313824 0 9 C-0.84454356 5.62182575 -1.10844919 3.32534757 0 0 Z " fill="#717473" transform="translate(328,597)"/>
<path d="M0 0 C1.2065625 0.0309375 1.2065625 0.0309375 2.4375 0.0625 C2.7675 1.0525 3.0975 2.0425 3.4375 3.0625 C3.1075 3.7225 2.7775 4.3825 2.4375 5.0625 C0.7875 5.0625 -0.8625 5.0625 -2.5625 5.0625 C-3.125 3.125 -3.125 3.125 -3.5625 1.0625 C-2.5625 0.0625 -2.5625 0.0625 0 0 Z " fill="#3E9F41" transform="translate(491.5625,354.9375)"/>
<path d="M0 0 C-3.69172595 3.53790403 -7.09390595 3.59115883 -12 4 C-9.07491676 -0.38762486 -5.0380608 -1.6793536 0 0 Z " fill="#0F330F" transform="translate(435,615)"/>
<path d="M0 0 C4.62 0 9.24 0 14 0 C14 0.33 14 0.66 14 1 C9.56323657 2.79583282 6.64998633 3.26817809 2 2 C1.34 1.34 0.68 0.68 0 0 Z " fill="#125172" transform="translate(579,546)"/>
<path d="M0 0 C0.33 0 0.66 0 1 0 C1.375 3.25 1.375 3.25 1 7 C-2 9.4375 -2 9.4375 -5 11 C-3.55049545 7.2089881 -1.84827434 3.6125362 0 0 Z " fill="#0B2E4C" transform="translate(662,498)"/>
<path d="M0 0 C0.99 0.33 1.98 0.66 3 1 C3 1.66 3 2.32 3 3 C3.99 3.33 4.98 3.66 6 4 C6.33 4.99 6.66 5.98 7 7 C4 7 4 7 1.8125 5.1875 C0 3 0 3 0 0 Z " fill="#185478" transform="translate(527,550)"/>
<path d="M0 0 C1.95216435 3.90432869 2.50639991 6.72213252 3 11 C2.01 11.33 1.02 11.66 0 12 C0 8.04 0 4.08 0 0 Z " fill="#23608E" transform="translate(531,504)"/>
<path d="M0 0 C0.33 0 0.66 0 1 0 C1.19477739 1.62414378 1.38059458 3.24936423 1.5625 4.875 C1.66691406 5.77992188 1.77132813 6.68484375 1.87890625 7.6171875 C2 10 2 10 1 12 C0.34 12 -0.32 12 -1 12 C-0.67 8.04 -0.34 4.08 0 0 Z " fill="#467A47" transform="translate(453,504)"/>
<path d="M0 0 C-1.32338632 0.68620031 -2.65949948 1.34786461 -4 2 C-4.804375 2.391875 -5.60875 2.78375 -6.4375 3.1875 C-9.38988863 4.12362322 -11.05809572 3.84054408 -14 3 C-9.40655732 0.4480874 -5.21536095 -0.14901031 0 0 Z " fill="#3F7D20" transform="translate(576,431)"/>
<path d="M0 0 C1.98 1.32 3.96 2.64 6 4 C1.82412255 5.39195915 -0.13474776 3.82323219 -4 2 C-2.68 1.34 -1.36 0.68 0 0 Z " fill="#2F6A8E" transform="translate(551,566)"/>
<path d="M0 0 C0.99 0 1.98 0 3 0 C1.75023244 3.65316671 1.32901247 4.78065836 -2 7 C-1.34 4.69 -0.68 2.38 0 0 Z " fill="#163F19" transform="translate(462,589)"/>
<path d="M0 0 C0.99 0 1.98 0 3 0 C1.63016497 3.16115776 1.0109362 3.9927092 -2 6 C-2.33 5.01 -2.66 4.02 -3 3 C-2.34 3 -1.68 3 -1 3 C-0.67 2.01 -0.34 1.02 0 0 Z " fill="#609F34" transform="translate(547,444)"/>
</svg>
